<svg width="62" height="62" fill="none" xmlns="http://www.w3.org/2000/svg"><path d="M31 0C13.879 0 0 13.88 0 31.001 0 48.122 13.879 62 31 62c17.12 0 31-13.878 31-30.999S48.12 0 31 0zm-7.197 31.252c1.506 0 2.691.37 3.554 1.111s1.295 1.829 1.295 3.263c0 1.021-.383 1.976-1.148 2.862-.765.886-1.817 1.33-3.154 1.33-2.091 0-3.585-.686-4.484-2.057-.898-1.37-1.349-3.172-1.349-5.404 0-1.576.341-3.014 1.021-4.311a15.364 15.364 0 012.479-3.477 17.927 17.927 0 013.172-2.656 120.54 120.54 0 012.808-1.783l1.312 2.18A48.328 48.328 0 0026.538 24c-.705.474-1.423 1.097-2.151 1.871-.681.728-1.204 1.491-1.567 2.29-.365.8-.62 1.83-.766 3.09h1.749v.001zm13.489 0c1.507 0 2.691.37 3.555 1.111.862.741 1.294 1.829 1.294 3.263 0 1.021-.382 1.976-1.147 2.862-.765.886-1.818 1.33-3.153 1.33-2.091 0-3.586-.686-4.485-2.057-.899-1.37-1.349-3.172-1.349-5.404 0-1.576.34-3.014 1.021-4.311a15.333 15.333 0 012.479-3.477 17.886 17.886 0 013.171-2.656 118.23 118.23 0 012.809-1.783l1.312 2.18A48.683 48.683 0 0040.028 24c-.705.474-1.422 1.097-2.151 1.871-.704.751-1.233 1.521-1.586 2.309-.352.787-.602 1.812-.747 3.071h1.748v.001z" fill="#000"/></svg>