<svg width="22" height="20" viewBox="0 0 22 20" fill="none" xmlns="http://www.w3.org/2000/svg">
<path d="M9.98744 0.859336C10.2873 -0.0609409 11.5892 -0.06094 11.8891 0.859337L13.6401 6.23373C13.7743 6.64536 14.158 6.92394 14.591 6.92394H20.2517C21.2211 6.92394 21.6234 8.16497 20.8384 8.73373L16.2635 12.0484C15.9121 12.303 15.765 12.7553 15.8995 13.168L17.648 18.5346C17.9481 19.4554 16.8948 20.2224 16.1105 19.6542L11.525 16.3318C11.1749 16.0782 10.7016 16.0782 10.3515 16.3318L5.76598 19.6542C4.98172 20.2224 3.92843 19.4554 4.22846 18.5346L5.97703 13.168C6.11148 12.7553 5.9644 12.303 5.61294 12.0484L1.03807 8.73373C0.253063 8.16497 0.655394 6.92394 1.62479 6.92394H7.28554C7.71847 6.92394 8.10223 6.64536 8.23635 6.23373L9.98744 0.859336Z" fill="#070707"/>
</svg>
